# xmcd
#
# Track frame offsets: 
#        150
#        13549
#        38048
#        63605
#        79813
#        98249
#        114744
#        129430
#        151464
#        168919
#        182320
#
# Disc length: 2692 seconds
#
# Revision: 0
# Processed by: cddbd v1.5.2PL0 Copyright (c) Steve Scherf et al.
# Submitted via: ExactAudioCopyFreeDBPlugin 1.0
#
DISCID=830a820b
DTITLE=Bad Temper Joe - Solitary Mind
DYEAR=2017
DGENRE=Blues
TTITLE0=(She's My) Mississippi
TTITLE1=Homeless
TTITLE2=Made-Up Woman
TTITLE3=Honey for my Biscuit
TTITLE4=In the Shade
TTITLE5=Love Song at 4 A.M.
TTITLE6=What It Takes
TTITLE7=Queen of Dwarfs
TTITLE8=Approximately Little Snow White Blues
TTITLE9=Most Things Haven't Worked Out Yet
TTITLE10=The Last Song Will Be Sung for You
EXTD=
EXTT0=
EXTT1=
EXTT2=
EXTT3=
EXTT4=
EXTT5=
EXTT6=
EXTT7=
EXTT8=
EXTT9=
EXTT10=
PLAYORDER=
